<svg xmlns="http://www.w3.org/2000/svg" xmlns:xlink="http://www.w3.org/1999/xlink" version="1.1" width="1000" height="1000" viewBox="0 0 1000 1000" xml:space="preserve">
<desc>Created with Fabric.js 3.5.0</desc>
<defs>
</defs>
<rect x="0" y="0" width="100%" height="100%" fill="#0d74f5"/>
<g transform="matrix(1.7756 0 0 1.7756 500.0071 500.0081)" id="391584">
<path style="stroke: none; stroke-width: 1; stroke-dasharray: none; stroke-linecap: butt; stroke-dashoffset: 0; stroke-linejoin: miter; stroke-miterlimit: 4; is-custom-font: none; font-file-url: none; fill: rgb(255,255,255); fill-rule: nonzero; opacity: 1;" vector-effect="non-scaling-stroke" transform=" translate(-224, -256)" d="M 128 0 c 17.7 0 32 14.3 32 32 V 64 H 288 V 32 c 0 -17.7 14.3 -32 32 -32 s 32 14.3 32 32 V 64 h 48 c 26.5 0 48 21.5 48 48 v 48 H 0 V 112 C 0 85.5 21.5 64 48 64 H 96 V 32 c 0 -17.7 14.3 -32 32 -32 z M 0 192 H 448 V 464 c 0 26.5 -21.5 48 -48 48 H 48 c -26.5 0 -48 -21.5 -48 -48 V 192 z m 80 64 c -8.8 0 -16 7.2 -16 16 v 64 c 0 8.8 7.2 16 16 16 H 368 c 8.8 0 16 -7.2 16 -16 V 272 c 0 -8.8 -7.2 -16 -16 -16 H 80 z" stroke-linecap="round"/>
</g>
</svg>