<svg xmlns="http://www.w3.org/2000/svg" xmlns:xlink="http://www.w3.org/1999/xlink" version="1.1" width="1000" height="1000" viewBox="0 0 1000 1000" xml:space="preserve">
<desc>Created with Fabric.js 3.5.0</desc>
<defs>
</defs>
<rect x="0" y="0" width="100%" height="100%" fill="rgba(255,255,255,0)"/>
<g transform="matrix(2.0292 0 0 2.0292 499.9953 499.9953)" id="235816">
<path style="stroke: none; stroke-width: 1; stroke-dasharray: none; stroke-linecap: butt; stroke-dashoffset: 0; stroke-linejoin: miter; stroke-miterlimit: 4; is-custom-font: none; font-file-url: none; fill: rgb(255,255,255); fill-rule: nonzero; opacity: 1;" vector-effect="non-scaling-stroke" transform=" translate(-224, -256)" d="M 64 32 C 28.7 32 0 60.7 0 96 V 416 c 0 35.3 28.7 64 64 64 H 384 c 35.3 0 64 -28.7 64 -64 V 96 c 0 -35.3 -28.7 -64 -64 -64 H 64 z M 192 256 h 48 c 17.7 0 32 -14.3 32 -32 s -14.3 -32 -32 -32 H 192 v 64 z m 48 64 H 192 v 32 c 0 17.7 -14.3 32 -32 32 s -32 -14.3 -32 -32 V 288 V 168 c 0 -22.1 17.9 -40 40 -40 h 72 c 53 0 96 43 96 96 s -43 96 -96 96 z" stroke-linecap="round"/>
</g>
</svg>