<svg xmlns="http://www.w3.org/2000/svg" xmlns:xlink="http://www.w3.org/1999/xlink" version="1.1" width="1000" height="1000" viewBox="0 0 1000 1000" xml:space="preserve">
<desc>Created with Fabric.js 3.5.0</desc>
<defs>
</defs>
<rect x="0" y="0" width="100%" height="100%" fill="#ff0000"/>
<g transform="matrix(1.6775 0 0 1.6775 499.9978 499.998)" id="525328">
<path style="stroke: none; stroke-width: 1; stroke-dasharray: none; stroke-linecap: butt; stroke-dashoffset: 0; stroke-linejoin: miter; stroke-miterlimit: 4; is-custom-font: none; font-file-url: none; fill: rgb(255,255,255); fill-rule: nonzero; opacity: 1;" vector-effect="non-scaling-stroke" transform=" translate(-302.9647, -256)" d="M 304 240 V 16.6 c 0 -9 7 -16.6 16 -16.6 C 443.7 0 544 100.3 544 224 c 0 9 -7.6 16 -16.6 16 H 304 z M 32 272 C 32 150.7 122.1 50.3 239 34.3 c 9.2 -1.3 17 6.1 17 15.4 V 288 L 412.5 444.5 c 6.7 6.7 6.2 17.7 -1.5 23.1 C 371.8 495.6 323.8 512 272 512 C 139.5 512 32 404.6 32 272 z m 526.4 16 c 9.3 0 16.6 7.8 15.4 17 c -7.7 55.9 -34.6 105.6 -73.9 142.3 c -6 5.6 -15.4 5.2 -21.2 -0.7 L 320 288 H 558.4 z" stroke-linecap="round"/>
</g>
</svg>