<svg xmlns="http://www.w3.org/2000/svg" xmlns:xlink="http://www.w3.org/1999/xlink" version="1.1" width="1000" height="1000" viewBox="0 0 1000 1000" xml:space="preserve">
<desc>Created with Fabric.js 3.5.0</desc>
<defs>
</defs>
<rect x="0" y="0" width="100%" height="100%" fill="#ffffff"/>
<g transform="matrix(1.4205 0 0 1.4205 500.0145 500.0116)" id="356552">
<path style="stroke: none; stroke-width: 1; stroke-dasharray: none; stroke-linecap: butt; stroke-dashoffset: 0; stroke-linejoin: miter; stroke-miterlimit: 4; is-custom-font: none; font-file-url: none; fill: rgb(13,116,245); fill-rule: nonzero; opacity: 1;" vector-effect="non-scaling-stroke" transform=" translate(-320, -256)" d="M 96 128 a 128 128 0 1 1 256 0 A 128 128 0 1 1 96 128 z M 0 482.3 C 0 383.8 79.8 304 178.3 304 h 91.4 C 368.2 304 448 383.8 448 482.3 c 0 16.4 -13.3 29.7 -29.7 29.7 H 29.7 C 13.3 512 0 498.7 0 482.3 z M 609.3 512 H 471.4 c 5.4 -9.4 8.6 -20.3 8.6 -32 v -8 c 0 -60.7 -27.1 -115.2 -69.8 -151.8 c 2.4 -0.1 4.7 -0.2 7.1 -0.2 h 61.4 C 567.8 320 640 392.2 640 481.3 c 0 17 -13.8 30.7 -30.7 30.7 z M 432 256 c -31 0 -59 -12.6 -79.3 -32.9 C 372.4 196.5 384 163.6 384 128 c 0 -26.8 -6.6 -52.1 -18.3 -74.3 C 384.3 40.1 407.2 32 432 32 c 61.9 0 112 50.1 112 112 s -50.1 112 -112 112 z" stroke-linecap="round"/>
</g>
</svg>