<svg xmlns="http://www.w3.org/2000/svg" xmlns:xlink="http://www.w3.org/1999/xlink" version="1.1" width="1000" height="1000" viewBox="0 0 1000 1000" xml:space="preserve">
<desc>Created with Fabric.js 3.5.0</desc>
<defs>
</defs>
<rect x="0" y="0" width="100%" height="100%" fill="rgba(255,255,255,0)"/>
<g transform="matrix(2.0291 0 0 2.0291 500.0086 500.01)" id="773298">
<path style="stroke: none; stroke-width: 1; stroke-dasharray: none; stroke-linecap: butt; stroke-dashoffset: 0; stroke-linejoin: miter; stroke-miterlimit: 4; is-custom-font: none; font-file-url: none; fill: rgb(255,0,0); fill-rule: nonzero; opacity: 1;" vector-effect="non-scaling-stroke" transform=" translate(-192, -256)" d="M 376.6 84.5 c 11.3 -13.6 9.5 -33.8 -4.1 -45.1 s -33.8 -9.5 -45.1 4.1 L 192 206 L 56.6 43.5 C 45.3 29.9 25.1 28.1 11.5 39.4 S -3.9 70.9 7.4 84.5 L 150.3 256 L 7.4 427.5 c -11.3 13.6 -9.5 33.8 4.1 45.1 s 33.8 9.5 45.1 -4.1 L 192 306 L 327.4 468.5 c 11.3 13.6 31.5 15.4 45.1 4.1 s 15.4 -31.5 4.1 -45.1 L 233.7 256 L 376.6 84.5 z" stroke-linecap="round"/>
</g>
</svg>